%TF.GenerationSoftware,Altium Limited,Altium Designer,25.8.1 (18)*%
G04 Layer_Physical_Order=1*
G04 Layer_Color=255*
%FSLAX45Y45*%
%MOMM*%
%TF.SameCoordinates,4152F094-1ACA-4120-A70E-F31CC435705F*%
%TF.FilePolarity,Positive*%
%TF.FileFunction,Copper,L1,Top,Signal*%
%TF.Part,Single*%
G01*
G75*
%TA.AperFunction,NonConductor*%
%ADD10C,0.25400*%
%TA.AperFunction,SMDPad,CuDef*%
%ADD11R,1.70000X0.60000*%
%ADD12R,2.70000X1.00000*%
%ADD13R,1.45000X1.25000*%
%ADD14R,1.00000X0.66000*%
%TA.AperFunction,Conductor*%
%ADD15C,0.30000*%
%ADD16C,0.50000*%
%TA.AperFunction,ViaPad*%
%ADD17C,0.70000*%
D10*
X0Y36500D02*
G03*
X100000Y-63500I100000J0D01*
G01*
X127000Y1136500D02*
G03*
X0Y1009500I0J-127000D01*
G01*
X2900000Y936500D02*
G03*
X2829289Y1107211I-241422J0D01*
G01*
D02*
G03*
X2758579Y1136500I-70711J-70711D01*
G01*
X2773000Y-63500D02*
G03*
X2900000Y63500I0J127000D01*
G01*
X0Y36500D02*
Y1009500D01*
X100000Y-63500D02*
X2700000D01*
X2900000Y63500D02*
Y936500D01*
X2700000Y-63500D02*
X2773000D01*
X127000Y1136500D02*
X2758579D01*
D11*
X677500Y437500D02*
D03*
Y562500D02*
D03*
X2172500D02*
D03*
Y437500D02*
D03*
D12*
X357500Y252500D02*
D03*
Y747500D02*
D03*
X2492500D02*
D03*
Y252500D02*
D03*
D13*
X1754331Y582500D02*
D03*
Y417500D02*
D03*
X1050000D02*
D03*
Y582500D02*
D03*
D14*
X1530000Y595000D02*
D03*
Y405000D02*
D03*
X1270000D02*
D03*
Y500000D02*
D03*
Y595000D02*
D03*
D15*
X1192819Y497556D02*
X1267556D01*
X1270000Y500000D01*
X2356653Y562500D02*
X2356880Y562273D01*
X2172500Y562500D02*
X2356653D01*
X1753985Y294038D02*
X1754331Y294384D01*
Y417500D01*
X1050000Y287468D02*
Y417500D01*
X826252Y437500D02*
X826654Y437098D01*
X677500Y437500D02*
X826252D01*
D16*
X1270000Y405000D02*
X1382426D01*
X1400000Y422574D01*
Y577426D01*
X1270000Y595000D02*
X1382426D01*
X1400000Y577426D01*
X1062500Y595000D02*
X1270000D01*
X1768616Y594047D02*
X1854257D01*
X2011038Y437267D02*
X2172267D01*
X1767247Y595416D02*
X1768616Y594047D01*
X1854257D02*
X2011038Y437267D01*
X1754331Y582500D02*
X1767247Y595416D01*
X1530000Y595000D02*
X1741831D01*
X1050000Y582500D02*
X1062500Y595000D01*
X882500Y582500D02*
X1050000D01*
X862500Y562500D02*
X882500Y582500D01*
X677500Y562500D02*
X862500D01*
D17*
X1050000Y287468D02*
D03*
X1192819Y497556D02*
D03*
X2356880Y562273D02*
D03*
X1754331Y294384D02*
D03*
X826252Y437500D02*
D03*
%TF.MD5,e86fffac92c034097d2aedcde0c2b360*%
M02*
